# Blender 3.1.0
# www.blender.org
mtllib p1.mtl
o Cube
v 1.000000 1.000000 -1.000000
v 1.000000 -1.000000 -1.000000
v 1.000000 1.000000 1.000000
v 1.000000 -1.000000 1.000000
v -1.000000 1.000000 -1.000000
v -1.000000 -1.000000 -1.000000
v -1.000000 1.000000 1.000000
v -1.000000 -1.000000 1.000000
vn -0.0000 1.0000 -0.0000
vn -0.0000 -0.0000 1.0000
vn -1.0000 -0.0000 -0.0000
vn -0.0000 -1.0000 -0.0000
vn 1.0000 -0.0000 -0.0000
vn -0.0000 -0.0000 -1.0000
vt 0.588847 0.260012
vt 0.588314 0.490499
vt 0.589381 0.029526
vt 0.587246 0.951472
vt 0.819334 0.260546
vt 0.587780 0.720985
vt 0.818800 0.491032
vt 0.358361 0.259478
vt 0.357827 0.489965
vt 0.358894 0.028992
vt 0.356760 0.950938
vt 0.127874 0.258945
vt 0.127341 0.489431
vt 0.357294 0.720452
s 0
usemtl Material
f 1/1/1 5/8/1 7/10/1 3/3/1
f 4/6/2 3/4/2 7/11/2 8/14/2
f 8/13/3 7/12/3 5/8/3 6/9/3
f 6/9/4 2/2/4 4/6/4 8/14/4
f 2/2/5 1/1/5 3/5/5 4/7/5
f 6/9/6 5/8/6 1/1/6 2/2/6
